<?xml version="1.0" encoding="utf-8"?>
<!-- Generator: Adobe Illustrator 24.2.0, SVG Export Plug-In . SVG Version: 6.00 Build 0)  -->
<svg version="1.1" id="Layer_1" xmlns="http://www.w3.org/2000/svg" xmlns:xlink="http://www.w3.org/1999/xlink" x="0px" y="0px"
	 viewBox="0 0 480 480" style="enable-background:new 0 0 480 480;" xml:space="preserve">
<style type="text/css">
	.st0{fill:#FFFFFF;}
	.st1{fill:#28AFB0;}
</style>
<path class="st0" d="M464,240c-0.1-55.6-41-102.7-96-110.7V56c0-13.3-10.7-24-24-24h-72V16c0-8.8-7.2-16-16-16H128
	c-8.8,0-16,7.2-16,16v16H40c-13.3,0-24,10.7-24,24v360c0,13.3,10.7,24,24,24h280v8c0,17.7,14.3,32,32,32s32-14.3,32-32v-80
	c0-4.4-3.6-8-8-8v-10.7C427.3,338,463.9,292.6,464,240z M448,240c0,53-43,96-96,96s-96-43-96-96s43-96,96-96
	C405,144.1,447.9,187,448,240z M344,48c4.4,0,8,3.6,8,8v72c-5.4,0-10.7,0.5-16,1.3V80c0-8.8-7.2-16-16-16h-48V48H344z M128,16h128
	v80H128V16z M256,112c8.8,0,16-7.2,16-16V80h48v52.7c-48.9,14.6-81.8,60.4-79.9,111.4c1.9,51,38.1,94.3,87.9,105.2V360
	c-4.4,0-8,3.6-8,8v24H64V80h48v16c0,8.8,7.2,16,16,16H256z M40,424c-4.4,0-8-3.6-8-8V56c0-4.4,3.6-8,8-8h72v16H64
	c-8.8,0-16,7.2-16,16v312c0,8.8,7.2,16,16,16h256v16H40z M368,448c0,8.8-7.2,16-16,16s-16-7.2-16-16v-72h32V448z M360,360h-16v-8.4
	c2.7,0.2,5.3,0.4,8,0.4s5.3-0.2,8-0.4V360z"/>
<path class="st0" d="M272,240c0,44.2,35.8,80,80,80v-16c-35.3,0-64-28.7-64-64s28.7-64,64-64v-16C307.8,160,272,195.8,272,240z"/>
<path class="st1" d="M96,160v64c0,4.4,3.6,8,8,8h64c4.4,0,8-3.6,8-8v-58.4l14.1-16.4l-12.1-10.4L166.6,152H104
	C99.6,152,96,155.6,96,160z M112,168h40.9l-17.4,20.2l-9.9-9.9l-11.3,11.3l16,16c1.5,1.5,3.5,2.3,5.7,2.3h0.3
	c2.2-0.1,4.3-1.1,5.8-2.8l17.9-20.9V216h-48V168z"/>
</svg>
