<?xml version="1.0" encoding="utf-8"?>
<!-- Generator: Adobe Illustrator 24.2.0, SVG Export Plug-In . SVG Version: 6.00 Build 0)  -->
<svg version="1.1" id="Layer_1" xmlns:svgjs="http://svgjs.com/svgjs"
	 xmlns="http://www.w3.org/2000/svg" xmlns:xlink="http://www.w3.org/1999/xlink" x="0px" y="0px" viewBox="0 0 512 512"
	 style="enable-background:new 0 0 512 512;" xml:space="preserve">
<style type="text/css">
	.st0{fill:#28AFB0;}
	.st1{fill:url(#SVGID_1_);}
</style>
<g>
	<g>
		<path class="st0" d="M226.4,213.3c-23.6,0-42.7,19.1-42.7,42.7s19.1,42.7,42.7,42.7c23.6,0,42.7-19.1,42.7-42.7
			C269,232.4,249.9,213.4,226.4,213.3z M226.4,281.6c-14.1,0-25.6-11.5-25.6-25.6c0-14.1,11.5-25.6,25.6-25.6
			c14.1,0,25.6,11.5,25.6,25.6C252,270.1,240.5,281.6,226.4,281.6z"/>
		
			<linearGradient id="SVGID_1_" gradientUnits="userSpaceOnUse" x1="185.5916" y1="45.5055" x2="185.5916" y2="548.1455" gradientTransform="matrix(1.0667 0 0 -1.0667 28.4 556.7334)">
			<stop  offset="1.158301e-02" style="stop-color:#FFFFFF"/>
			<stop  offset="0.9577" style="stop-color:#FFFFFF"/>
			<stop  offset="1" style="stop-color:#FFFFFF"/>
		</linearGradient>
		<path class="st1" d="M374.8,256c12.8-10.8,25-22.4,36.5-34.7c36.5-39.5,49.2-71.8,36.7-93.3c-17.9-31-78.1-25.2-147.5-0.6
			C287.3,55,262.1,0,226.4,0c-35.8,0-60.9,55-74.2,127.4C82.8,102.8,22.6,97,4.7,128c-12.5,21.6,0.2,53.9,36.7,93.3
			c11.5,12.2,23.7,23.8,36.5,34.7c-12.8,10.8-25,22.4-36.5,34.7C4.9,330.1-7.8,362.4,4.6,384c8.5,14.8,26.7,21.2,50.9,21.2
			c33.1-1.6,65.7-8.6,96.5-20.6C165.4,457,190.6,512,226.4,512c35.8,0,60.9-55,74.2-127.4c30.9,12,63.4,19,96.5,20.6
			c24.2,0,42.4-6.4,50.9-21.2c12.5-21.6-0.2-53.9-36.7-93.3C399.8,278.4,387.6,266.8,374.8,256z M433.3,136.5
			c8,13.8-4.9,41.2-34.5,73.2c-11.7,12.5-24.2,24.2-37.3,35.2c-15.8-12.7-32.9-25.2-51.3-37.4c-1.3-21.6-3.6-42.9-6.7-63.1
			C372.3,119.7,422.4,117.8,433.3,136.5L433.3,136.5z M260.5,315.1c-11.6,6.7-22.9,12.9-34.1,18.6c-11.2-5.7-22.6-11.9-34.1-18.6
			c-11.4-6.6-22.4-13.4-33.2-20.4c-0.6-12.5-0.9-25.4-0.9-38.8c0-13.3,0.3-26.2,0.9-38.8c10.7-6.9,21.8-13.8,33.2-20.4
			c11.6-6.7,22.9-12.9,34.1-18.6c11.2,5.8,22.6,11.9,34.1,18.6c11.4,6.6,22.5,13.4,33.2,20.4c0.6,12.5,0.9,25.4,0.9,38.8
			c0,13.3-0.3,26.2-0.9,38.8C282.9,301.7,271.9,308.5,260.5,315.1z M292.3,315.9c-1.2,16.1-3,31.3-5.1,45.6
			c-13.5-5.3-27.5-11.4-42.1-18.4c8-4.3,16-8.6,23.8-13.2C276.8,325.4,284.7,320.6,292.3,315.9z M207.5,343
			c-14.5,6.9-28.6,13.1-42.1,18.4c-2.1-14.3-3.9-29.5-5.1-45.6c7.6,4.8,15.4,9.4,23.3,14C191.5,334.4,199.5,338.8,207.5,343z
			 M141.5,283.1c-13-8.9-25.3-17.9-36.8-27.1c11.5-9.1,23.8-18.2,36.8-27.1c-0.3,9-0.5,18.1-0.5,27.1
			C141,265,141.2,274.1,141.5,283.1L141.5,283.1z M160.4,196.1c1.2-16,3-31.3,5.1-45.6c13.5,5.3,27.5,11.4,42,18.4
			c-8,4.3-15.9,8.6-23.8,13.2C175.8,186.7,168,191.4,160.4,196.1L160.4,196.1z M245.2,169c14.5-6.9,28.6-13.1,42-18.4
			c2.1,14.3,3.9,29.5,5.1,45.6c-7.6-4.8-15.4-9.5-23.3-14.1C261.2,177.6,253.2,173.2,245.2,169z M311.2,228.9
			c13,8.9,25.2,17.9,36.8,27.1c-11.5,9.1-23.8,18.2-36.8,27.1c0.3-9,0.5-18.1,0.5-27.1C311.7,247,311.5,237.9,311.2,228.9
			L311.2,228.9z M226.4,17.1c21.7,0,45.1,44.4,58.1,116.4c-19.1,7.4-38.7,16.1-58,25.8c-19.4-9.7-39-18.4-58-25.8
			C181.3,61.5,204.6,17.1,226.4,17.1z M53.9,209.8c-29.6-32-42.5-59.4-34.5-73.2c4.8-8.3,17.4-12.6,35.8-12.6
			c32.2,1.7,64,8.6,94,20.5c-3.1,20.2-5.3,41.5-6.7,63.1c-18.4,12.2-35.6,24.7-51.3,37.4C78.1,233.9,65.6,222.2,53.9,209.8z
			 M19.4,375.5c-8-13.8,4.9-41.2,34.5-73.2c11.7-12.5,24.2-24.2,37.3-35.2c15.8,12.7,32.9,25.2,51.3,37.4
			c1.3,21.6,3.6,42.9,6.7,63.1C80.4,392.3,30.3,394.2,19.4,375.5z M226.4,494.9c-21.7,0-45.1-44.4-58-116.3
			c19.1-7.4,38.7-16.1,58.1-25.8c19.4,9.6,39,18.4,58.1,25.8C271.4,450.5,248.1,494.9,226.4,494.9z M433.3,375.5
			c-10.9,18.8-61,16.8-129.8-7.9c3.1-20.2,5.4-41.5,6.7-63.1c18.4-12.2,35.6-24.7,51.3-37.4c13.1,11,25.6,22.7,37.3,35.2
			C428.4,334.3,441.3,361.6,433.3,375.5z"/>
	</g>
</g>
</svg>
