<?xml version="1.0" encoding="utf-8"?>
<!-- Generator: Adobe Illustrator 24.2.0, SVG Export Plug-In . SVG Version: 6.00 Build 0)  -->
<svg version="1.1" id="Layer_1" xmlns:svgjs="http://svgjs.com/svgjs"
	 xmlns="http://www.w3.org/2000/svg" xmlns:xlink="http://www.w3.org/1999/xlink" x="0px" y="0px" viewBox="0 0 512 512"
	 style="enable-background:new 0 0 512 512;" xml:space="preserve">
<style type="text/css">
	.st0{fill:#FFFFFF;}
	.st1{fill:#28AFB0;}
</style>
<g>
	<g>
		<path class="st0" d="M451.5,30V0h-30v30h-271V0h-30v30h-30v383.3h-60v39.1c0,32.9,26.7,59.6,59.6,59.6h331.7
			c32.9,0,59.6-26.7,59.6-59.6V30L451.5,30z M90.1,482c-16.3,0-29.6-13.3-29.6-29.6v-9.1H361v9.1c0,10.8,2.9,20.9,7.9,29.6H90.1z
			 M451.5,452.4c0,16.3-13.3,29.6-29.6,29.6h-1.2c-16.3,0-29.6-13.3-29.6-29.6v-39.1H120.5V60h331V452.4z"/>
		<path class="st1" d="M419,156.3H153v224h266V156.3z M389,350.3H183v-164h206V350.3z"/>
		<path class="st0" d="M178,96.3h216v30H178L178,96.3z"/>
	</g>
</g>
</svg>
