<svg width="1594" height="264" viewBox="0 0 1594 264" fill="none" xmlns="http://www.w3.org/2000/svg">
<path d="M1039.6 96.768C1051.12 100.416 1060.14 106.56 1066.67 115.2C1073.2 123.648 1076.46 134.112 1076.46 146.592C1076.46 164.256 1069.55 177.888 1055.73 187.488C1042.1 196.896 1022.13 201.6 995.824 201.6H891.568V0H990.064C1014.64 0 1033.46 4.704 1046.51 14.112C1059.76 23.52 1066.38 36.288 1066.38 52.416C1066.38 62.208 1063.98 70.944 1059.18 78.624C1054.58 86.304 1048.05 92.352 1039.6 96.768ZM937.936 35.136V82.656H984.304C995.824 82.656 1004.56 80.64 1010.51 76.608C1016.46 72.576 1019.44 66.624 1019.44 58.752C1019.44 50.88 1016.46 45.024 1010.51 41.184C1004.56 37.152 995.824 35.136 984.304 35.136H937.936ZM992.368 166.464C1004.66 166.464 1013.87 164.448 1020.02 160.416C1026.35 156.384 1029.52 150.144 1029.52 141.696C1029.52 124.992 1017.14 116.64 992.368 116.64H937.936V166.464H992.368Z" fill="#28AFB0"/>
<path d="M1171.11 44.352C1195.11 44.352 1213.55 50.112 1226.41 61.632C1239.27 72.96 1245.71 90.144 1245.71 113.184V201.6H1203.66V182.304C1195.21 196.704 1179.47 203.904 1156.43 203.904C1144.52 203.904 1134.15 201.888 1125.32 197.856C1116.68 193.824 1110.06 188.256 1105.45 181.152C1100.84 174.048 1098.54 165.984 1098.54 156.96C1098.54 142.56 1103.91 131.232 1114.67 122.976C1125.61 114.72 1142.41 110.592 1165.07 110.592H1200.78C1200.78 100.8 1197.8 93.312 1191.85 88.128C1185.9 82.752 1176.97 80.064 1165.07 80.064C1156.81 80.064 1148.65 81.408 1140.59 84.096C1132.71 86.592 1125.99 90.048 1120.43 94.464L1104.3 63.072C1112.75 57.12 1122.83 52.512 1134.54 49.248C1146.44 45.984 1158.63 44.352 1171.11 44.352ZM1167.66 173.664C1175.34 173.664 1182.15 171.936 1188.11 168.48C1194.06 164.832 1198.28 159.552 1200.78 152.64V136.8H1169.96C1151.53 136.8 1142.31 142.848 1142.31 154.944C1142.31 160.704 1144.52 165.312 1148.94 168.768C1153.55 172.032 1159.79 173.664 1167.66 173.664Z" fill="#28AFB0"/>
<path d="M1338.5 203.904C1325.63 203.904 1313.06 202.368 1300.77 199.296C1288.48 196.032 1278.69 192 1271.39 187.2L1286.37 154.944C1293.28 159.36 1301.63 163.008 1311.42 165.888C1321.22 168.576 1330.82 169.92 1340.22 169.92C1359.23 169.92 1368.74 165.216 1368.74 155.808C1368.74 151.392 1366.14 148.224 1360.96 146.304C1355.78 144.384 1347.81 142.752 1337.06 141.408C1324.38 139.488 1313.92 137.28 1305.66 134.784C1297.41 132.288 1290.21 127.872 1284.06 121.536C1278.11 115.2 1275.14 106.176 1275.14 94.464C1275.14 84.672 1277.92 76.032 1283.49 68.544C1289.25 60.864 1297.5 54.912 1308.26 50.688C1319.2 46.464 1332.06 44.352 1346.85 44.352C1357.79 44.352 1368.64 45.6 1379.39 48.096C1390.34 50.4 1399.36 53.664 1406.46 57.888L1391.49 89.856C1377.86 82.176 1362.98 78.336 1346.85 78.336C1337.25 78.336 1330.05 79.68 1325.25 82.368C1320.45 85.056 1318.05 88.512 1318.05 92.736C1318.05 97.536 1320.64 100.896 1325.82 102.816C1331.01 104.736 1339.26 106.56 1350.59 108.288C1363.26 110.4 1373.63 112.704 1381.7 115.2C1389.76 117.504 1396.77 121.824 1402.72 128.16C1408.67 134.496 1411.65 143.328 1411.65 154.656C1411.65 164.256 1408.77 172.8 1403.01 180.288C1397.25 187.776 1388.8 193.632 1377.66 197.856C1366.72 201.888 1353.66 203.904 1338.5 203.904Z" fill="#28AFB0"/>
<path d="M1591.14 124.704C1591.14 125.28 1590.86 129.312 1590.28 136.8H1473.06C1475.18 146.4 1480.17 153.984 1488.04 159.552C1495.91 165.12 1505.7 167.904 1517.42 167.904C1525.48 167.904 1532.58 166.752 1538.73 164.448C1545.06 161.952 1550.92 158.112 1556.3 152.928L1580.2 178.848C1565.61 195.552 1544.3 203.904 1516.26 203.904C1498.79 203.904 1483.34 200.544 1469.9 193.824C1456.46 186.912 1446.09 177.408 1438.79 165.312C1431.5 153.216 1427.85 139.488 1427.85 124.128C1427.85 108.96 1431.4 95.328 1438.5 83.232C1445.8 70.944 1455.69 61.44 1468.17 54.72C1480.84 47.808 1494.95 44.352 1510.5 44.352C1525.67 44.352 1539.4 47.616 1551.69 54.144C1563.98 60.672 1573.58 70.08 1580.49 82.368C1587.59 94.464 1591.14 108.576 1591.14 124.704ZM1510.79 78.336C1500.62 78.336 1492.07 81.216 1485.16 86.976C1478.25 92.736 1474.02 100.608 1472.49 110.592H1548.81C1547.27 100.8 1543.05 93.024 1536.14 87.264C1529.22 81.312 1520.78 78.336 1510.79 78.336Z" fill="#28AFB0"/>
<path d="M322.272 4L256.32 205.6H206.208L161.856 69.088L116.064 205.6H66.24L0 4H48.384L93.888 145.696L141.408 4H184.608L230.688 146.848L277.632 4H322.272Z" fill="white"/>
<path d="M396.115 48.352C420.115 48.352 438.547 54.112 451.411 65.632C464.275 76.96 470.707 94.144 470.707 117.184V205.6H428.659V186.304C420.211 200.704 404.467 207.904 381.427 207.904C369.523 207.904 359.155 205.888 350.323 201.856C341.683 197.824 335.059 192.256 330.451 185.152C325.843 178.048 323.539 169.984 323.539 160.96C323.539 146.56 328.915 135.232 339.667 126.976C350.611 118.72 367.411 114.592 390.067 114.592H425.779C425.779 104.8 422.803 97.312 416.851 92.128C410.899 86.752 401.971 84.064 390.067 84.064C381.811 84.064 373.651 85.408 365.587 88.096C357.715 90.592 350.995 94.048 345.427 98.464L329.299 67.072C337.747 61.12 347.827 56.512 359.539 53.248C371.443 49.984 383.635 48.352 396.115 48.352ZM392.659 177.664C400.339 177.664 407.155 175.936 413.107 172.48C419.059 168.832 423.283 163.552 425.779 156.64V140.8H394.963C376.531 140.8 367.315 146.848 367.315 158.944C367.315 164.704 369.523 169.312 373.939 172.768C378.547 176.032 384.787 177.664 392.659 177.664Z" fill="white"/>
<path d="M672.896 50.656V179.68C672.896 208.096 665.504 229.216 650.72 243.04C635.936 256.864 614.336 263.776 585.92 263.776C570.944 263.776 556.736 261.952 543.296 258.304C529.856 254.656 518.72 249.376 509.888 242.464L527.744 210.208C534.272 215.584 542.528 219.808 552.512 222.88C562.496 226.144 572.48 227.776 582.464 227.776C598.016 227.776 609.44 224.224 616.736 217.12C624.224 210.208 627.968 199.648 627.968 185.44V178.816C616.256 191.68 599.936 198.112 579.008 198.112C564.8 198.112 551.744 195.04 539.84 188.896C528.128 182.56 518.816 173.728 511.904 162.4C504.992 151.072 501.536 138.016 501.536 123.232C501.536 108.448 504.992 95.392 511.904 84.064C518.816 72.736 528.128 64 539.84 57.856C551.744 51.52 564.8 48.352 579.008 48.352C601.472 48.352 618.56 55.744 630.272 70.528V50.656H672.896ZM587.936 161.248C599.84 161.248 609.536 157.792 617.024 150.88C624.704 143.776 628.544 134.56 628.544 123.232C628.544 111.904 624.704 102.784 617.024 95.872C609.536 88.768 599.84 85.216 587.936 85.216C576.032 85.216 566.24 88.768 558.56 95.872C550.88 102.784 547.04 111.904 547.04 123.232C547.04 134.56 550.88 143.776 558.56 150.88C566.24 157.792 576.032 161.248 587.936 161.248Z" fill="white"/>
<path d="M866.489 128.704C866.489 129.28 866.201 133.312 865.625 140.8H748.409C750.521 150.4 755.513 157.984 763.385 163.552C771.257 169.12 781.049 171.904 792.76 171.904C800.825 171.904 807.929 170.752 814.073 168.448C820.409 165.952 826.265 162.112 831.641 156.928L855.544 182.848C840.953 199.552 819.641 207.904 791.609 207.904C774.137 207.904 758.68 204.544 745.24 197.824C731.8 190.912 721.432 181.408 714.136 169.312C706.84 157.216 703.193 143.488 703.193 128.128C703.193 112.96 706.745 99.328 713.849 87.232C721.145 74.944 731.033 65.44 743.513 58.72C756.185 51.808 770.297 48.352 785.849 48.352C801.017 48.352 814.745 51.616 827.033 58.144C839.321 64.672 848.921 74.08 855.833 86.368C862.937 98.464 866.489 112.576 866.489 128.704ZM786.137 82.336C775.961 82.336 767.417 85.216 760.505 90.976C753.593 96.736 749.369 104.608 747.833 114.592H824.153C822.617 104.8 818.393 97.024 811.481 91.264C804.569 85.312 796.121 82.336 786.137 82.336Z" fill="white"/>
</svg>
